<svg width="21.230591" height="14.166992" viewBox="0 0 21.2306 14.167" fill="none" xmlns="http://www.w3.org/2000/svg" xmlns:xlink="http://www.w3.org/1999/xlink">
	<desc>
			Created with Pixso.
	</desc>
	<defs/>
	<path id="Vector" d="M0 0.83C0 0.37 0.39 0 0.88 0L4.42 0C4.84 0 5.2 0.28 5.29 0.66L6.03 4.16L20.34 4.16C20.6 4.16 20.85 4.27 21.02 4.46C21.19 4.66 21.26 4.91 21.21 5.15L19.79 12.15C19.67 12.72 19.34 13.24 18.85 13.61C18.37 13.98 17.77 14.17 17.15 14.16L8.57 14.16C7.95 14.17 7.34 13.98 6.86 13.61C6.38 13.24 6.04 12.72 5.92 12.15L4.44 5.19C4.44 5.17 4.43 5.15 4.43 5.12L3.69 1.66L0.88 1.66C0.39 1.66 0 1.29 0 0.83L0 0.83ZM6.38 5.83L7.66 11.82C7.7 12.02 7.81 12.19 7.97 12.31C8.13 12.43 8.33 12.5 8.54 12.5L8.56 12.5L17.16 12.5L17.17 12.5C17.38 12.5 17.58 12.43 17.75 12.31C17.91 12.19 18.02 12.02 18.06 11.83L19.27 5.83L6.38 5.83Z" fill="#FFFFFF" fill-opacity="1.000000" fill-rule="evenodd"/>
</svg>
