<svg width="18.732178" height="15.796875" viewBox="0 0 18.7322 15.7969" fill="none" xmlns="http://www.w3.org/2000/svg" xmlns:xlink="http://www.w3.org/1999/xlink">
	<desc>
			Created with Pixso.
	</desc>
	<defs/>
	<path id="Vector" d="M13.58 0C16.42 0 18.73 2.13 18.73 5.12C18.73 11.1 11.7 14.51 9.36 15.79C7.02 14.51 0 11.1 0 5.12C0 2.13 2.34 0 5.15 0C6.89 0 8.42 0.85 9.36 1.7C10.3 0.85 11.83 0 13.58 0ZM10.24 13.32C11.06 12.84 11.81 12.37 12.5 11.87C15.29 9.84 16.85 7.63 16.85 5.12C16.85 3.1 15.41 1.7 13.58 1.7C12.57 1.7 11.48 2.19 10.69 2.91L9.36 4.12L8.04 2.91C7.24 2.19 6.15 1.7 5.15 1.7C3.33 1.7 1.87 3.12 1.87 5.12C1.87 7.63 3.43 9.84 6.22 11.87C6.92 12.37 7.66 12.84 8.49 13.32C8.77 13.48 9.04 13.63 9.36 13.81C9.68 13.63 9.96 13.48 10.24 13.32Z" fill="#FFFFFF" fill-opacity="1.000000" fill-rule="nonzero"/>
</svg>
