<svg width="16.022217" height="18.333008" viewBox="0 0 16.0222 18.333" fill="none" xmlns="http://www.w3.org/2000/svg" xmlns:xlink="http://www.w3.org/1999/xlink">
	<desc>
			Created with Pixso.
	</desc>
	<defs/>
	<path id="Vector" d="M8.01 8.33C8.89 8.33 9.75 8.08 10.48 7.63C11.21 7.17 11.78 6.52 12.12 5.76C12.45 5 12.54 4.16 12.37 3.35C12.2 2.54 11.78 1.8 11.15 1.22C10.53 0.63 9.74 0.24 8.87 0.08C8.01 -0.09 7.12 0 6.3 0.31C5.49 0.63 4.79 1.16 4.31 1.85C3.82 2.53 3.56 3.34 3.56 4.16C3.56 5.27 4.03 6.33 4.86 7.11C5.69 7.89 6.83 8.33 8.01 8.33ZM8.01 1.66C8.53 1.66 9.05 1.81 9.49 2.08C9.93 2.36 10.27 2.75 10.47 3.2C10.68 3.66 10.73 4.16 10.63 4.65C10.52 5.13 10.27 5.58 9.89 5.93C9.52 6.28 9.05 6.52 8.53 6.61C8.01 6.71 7.47 6.66 6.98 6.47C6.5 6.28 6.08 5.96 5.79 5.55C5.49 5.14 5.34 4.66 5.34 4.16C5.34 3.5 5.62 2.86 6.12 2.39C6.62 1.92 7.3 1.66 8.01 1.66ZM0 17.5L0 14.16C0 13.06 0.47 12 1.3 11.22C2.13 10.44 3.27 10 4.45 10L11.57 10C12.75 10 13.88 10.44 14.71 11.22C15.55 12 16.02 13.06 16.02 14.16L16.02 17.5C16.02 17.72 15.92 17.93 15.76 18.08C15.59 18.24 15.36 18.33 15.13 18.33C14.89 18.33 14.66 18.24 14.5 18.08C14.33 17.93 14.24 17.72 14.24 17.5L14.24 14.16C14.24 13.5 13.96 12.86 13.46 12.39C12.95 11.92 12.27 11.66 11.57 11.66L4.45 11.66C3.74 11.66 3.06 11.92 2.56 12.39C2.06 12.86 1.78 13.5 1.78 14.16L1.78 17.5C1.78 17.72 1.68 17.93 1.51 18.08C1.35 18.24 1.12 18.33 0.89 18.33C0.65 18.33 0.42 18.24 0.26 18.08C0.09 17.93 0 17.72 0 17.5Z" fill="#FFFFFF" fill-opacity="1.000000" fill-rule="nonzero"/>
</svg>
