<svg width="16.642578" height="16.711914" viewBox="0 0 16.6426 16.7119" fill="none" xmlns="http://www.w3.org/2000/svg" xmlns:xlink="http://www.w3.org/1999/xlink">
	<desc>
			Created with Pixso.
	</desc>
	<defs/>
	<path id="circle2017" d="M7.46 0C3.35 0 0 3.36 0 7.49C0 11.63 3.35 15 7.46 15C9.22 15 10.84 14.38 12.12 13.35L15.23 16.47C15.39 16.63 15.6 16.71 15.81 16.71C16.03 16.7 16.24 16.62 16.39 16.46C16.55 16.31 16.64 16.1 16.64 15.88C16.64 15.66 16.56 15.45 16.41 15.29L13.3 12.17C14.32 10.89 14.94 9.26 14.94 7.49C14.94 3.36 11.58 0 7.46 0ZM7.46 1.66C10.68 1.66 13.27 4.26 13.27 7.49C13.27 10.72 10.68 13.33 7.46 13.33C4.25 13.33 1.66 10.72 1.66 7.49C1.66 4.26 4.25 1.66 7.46 1.66Z" fill="#443297" fill-opacity="1.000000" fill-rule="nonzero"/>
</svg>
