<svg width="13.972656" height="11.347656" viewBox="0 0 13.9727 11.3477" fill="none" xmlns="http://www.w3.org/2000/svg" xmlns:xlink="http://www.w3.org/1999/xlink">
	<desc>
			Created with Pixso.
	</desc>
	<defs/>
	<path id="" d="M13.97 1.33C13.58 1.91 13.09 2.4 12.55 2.81L12.55 3.19C12.55 7 9.67 11.34 4.4 11.34C2.76 11.34 1.25 10.88 0 10.06C0.21 10.08 0.43 10.11 0.68 10.11C2.02 10.11 3.25 9.65 4.23 8.88C2.98 8.85 1.91 8.03 1.55 6.89C1.75 6.91 1.91 6.94 2.1 6.94C2.35 6.94 2.62 6.89 2.84 6.83C1.53 6.56 0.54 5.41 0.54 4.01L0.54 3.99C0.92 4.21 1.39 4.32 1.85 4.34C1.06 3.82 0.57 2.95 0.57 1.96C0.57 1.42 0.71 0.92 0.95 0.51C2.37 2.24 4.51 3.39 6.89 3.52Q6.8 3.19 6.8 2.87C6.8 1.28 8.09 0 9.67 0C10.5 0 11.23 0.32 11.78 0.9C12.41 0.76 13.04 0.51 13.58 0.19C13.37 0.87 12.93 1.42 12.33 1.77C12.9 1.72 13.48 1.55 13.97 1.33Z" fill="#041E42" fill-opacity="1.000000" fill-rule="evenodd"/>
</svg>
