<svg width="12.250000" height="12.222656" viewBox="0 0 12.25 12.2227" fill="none" xmlns="http://www.w3.org/2000/svg" xmlns:xlink="http://www.w3.org/1999/xlink">
	<desc>
			Created with Pixso.
	</desc>
	<defs/>
	<path id="" d="M2.92 1.44C2.92 2.26 2.26 2.95 1.44 2.95C0.65 2.95 0 2.26 0 1.44C0 0.65 0.65 0 1.44 0C2.26 0 2.92 0.65 2.92 1.44ZM12.25 12.22L9.7 12.22L9.7 8.25C9.7 7.3 9.67 6.09 8.36 6.09C7.05 6.09 6.86 7.1 6.86 8.17L6.86 12.22L4.32 12.22L4.32 4.04L6.75 4.04L6.75 5.16L6.78 5.16C7.13 4.53 7.95 3.85 9.18 3.85C11.75 3.85 12.25 5.55 12.25 7.73L12.25 12.22ZM2.73 4.04L2.73 12.22L0.19 12.22L0.19 4.04L2.73 4.04Z" fill="#041E42" fill-opacity="1.000000" fill-rule="evenodd"/>
</svg>
