<svg width="12.250000" height="12.250000" viewBox="0 0 12.25 12.25" fill="none" xmlns="http://www.w3.org/2000/svg" xmlns:xlink="http://www.w3.org/1999/xlink">
	<desc>
			Created with Pixso.
	</desc>
	<defs/>
	<path id="" d="M11.22 1.02C11.93 1.73 12.15 2.61 12.2 3.59C12.26 4.6 12.26 7.64 12.2 8.65C12.15 9.63 11.93 10.48 11.22 11.22C10.51 11.93 9.63 12.15 8.65 12.2C7.64 12.26 4.6 12.26 3.59 12.2C2.61 12.15 1.76 11.93 1.02 11.22C0.31 10.48 0.09 9.63 0.04 8.65C-0.02 7.64 -0.02 4.6 0.04 3.59C0.09 2.61 0.31 1.73 1.02 1.02C1.76 0.31 2.61 0.09 3.59 0.04C4.6 -0.02 7.64 -0.02 8.65 0.04C9.63 0.09 10.51 0.31 11.22 1.02ZM9.74 10.89C10.26 10.67 10.7 10.26 10.89 9.72C11.17 9.04 11.15 7.56 11.14 6.57C11.14 6.4 11.14 6.24 11.14 6.11C11.14 5.98 11.14 5.82 11.14 5.65C11.15 4.68 11.17 3.19 10.89 2.5C10.67 1.98 10.26 1.54 9.74 1.35C9.05 1.07 7.56 1.09 6.59 1.1C6.42 1.1 6.26 1.1 6.13 1.1C6 1.1 5.84 1.1 5.67 1.1C4.68 1.09 3.2 1.07 2.52 1.35C1.98 1.57 1.57 1.98 1.35 2.5C1.07 3.19 1.09 4.68 1.1 5.65C1.1 5.82 1.1 5.98 1.1 6.11C1.1 6.24 1.1 6.4 1.1 6.57C1.09 7.56 1.07 9.04 1.35 9.72C1.57 10.26 1.98 10.67 2.52 10.89C3.2 11.17 4.68 11.15 5.67 11.14C5.84 11.14 6 11.14 6.13 11.14C6.26 11.14 6.42 11.14 6.59 11.14C7.56 11.15 9.05 11.17 9.74 10.89ZM9.39 2.11C9.8 2.11 10.13 2.44 10.13 2.85C10.13 3.26 9.8 3.59 9.39 3.59C8.98 3.59 8.65 3.26 8.65 2.85C8.65 2.44 8.98 2.11 9.39 2.11ZM2.99 6.11C2.99 4.38 4.38 2.96 6.13 2.96C7.86 2.96 9.28 4.38 9.28 6.11C9.28 7.86 7.86 9.25 6.13 9.25C4.38 9.25 2.99 7.86 2.99 6.11ZM4.08 6.11C4.08 7.25 5.01 8.16 6.13 8.16C7.25 8.16 8.16 7.25 8.16 6.11C8.16 4.99 7.25 4.08 6.13 4.08C4.99 4.08 4.08 4.99 4.08 6.11Z" fill="#041E42" fill-opacity="1.000000" fill-rule="evenodd"/>
</svg>
