<svg width="12" height="5" viewBox="0 0 12 5" fill="none" xmlns="http://www.w3.org/2000/svg">
<path d="M6.29031 4.86424L11.1611 1.07685C11.2738 0.989247 11.3359 0.872312 11.3359 0.747627C11.3359 0.622941 11.2738 0.506006 11.1611 0.418408L10.8025 0.139492C10.5688 -0.0419999 10.189 -0.0419999 9.95567 0.139492L5.86549 3.31986L1.77077 0.135963C1.65803 0.0483653 1.50773 -3.34045e-07 1.34746 -3.39492e-07C1.18702 -3.44945e-07 1.03672 0.0483653 0.923886 0.135963L0.56536 0.414879C0.452614 0.502546 0.390502 0.619412 0.390502 0.744097C0.390502 0.868783 0.452614 0.985718 0.56536 1.07332L5.44058 4.86424C5.55368 4.95205 5.70469 5.00028 5.86522 5C6.02638 5.00028 6.1773 4.95205 6.29031 4.86424Z" fill="#041E42"/>
</svg>
