<svg width="34" height="35" viewBox="0 0 34 35" fill="none" xmlns="http://www.w3.org/2000/svg">
<g clip-path="url(#clip0_1_880)">
<path d="M33.8308 19.8327L31.3259 4.76516C30.9854 2.71799 29.1379 1.34605 27.208 1.70708L5.72344 5.72507C3.79318 6.08603 2.49971 8.04519 2.84004 10.0924L3.0241 11.1996C1.76702 11.7813 0.885742 13.1115 0.885742 14.6567V29.5802C0.885742 31.659 2.48032 33.3502 4.44031 33.3502H25.7677C27.7277 33.3502 29.3223 31.659 29.3223 29.5802V24.5039L30.9474 24.2C31.8825 24.0251 32.6973 23.4745 33.2419 22.6496C33.7865 21.8247 33.9957 20.8242 33.8308 19.8327ZM31.6537 21.4701C31.4062 21.8451 31.0358 22.0953 30.6108 22.1749L29.3223 22.4158V21.2438V16.5793V14.6566C29.3223 12.5778 27.7277 10.8866 25.7677 10.8866H4.94092L4.74949 9.73525C4.67452 9.28449 4.76965 8.82976 5.01718 8.45475C5.26471 8.07981 5.63516 7.82955 6.06016 7.75004L27.5447 3.73211C27.6393 3.71443 27.7332 3.70593 27.8261 3.70593C28.5949 3.70593 29.2785 4.29186 29.4165 5.12214L31.9214 20.1896C31.9963 20.6405 31.9013 21.0952 31.6537 21.4701ZM25.7677 31.2938H4.44031C3.5494 31.2938 2.8246 30.5251 2.8246 29.5802V22.272H27.3834V29.5801C27.3834 30.5251 26.6586 31.2938 25.7677 31.2938ZM4.44031 12.943H25.7677C26.6586 12.943 27.3834 13.7118 27.3834 14.6567V15.5512H2.8246V14.6567C2.8246 13.7118 3.5494 12.943 4.44031 12.943ZM27.3834 17.6075V20.2157H2.8246V17.6075H27.3834Z" fill="#041E42"/>
<path d="M10.2151 27.165H5.81708C5.2817 27.165 4.84766 27.6254 4.84766 28.1932C4.84766 28.7611 5.2817 29.2214 5.81708 29.2214H10.2151C10.7504 29.2214 11.1845 28.7611 11.1845 28.1932C11.1845 27.6254 10.7504 27.165 10.2151 27.165Z" fill="#041E42"/>
</g>
<defs>
<clipPath id="clip0_1_880">
<rect width="33" height="35" fill="white" transform="translate(0.885742)"/>
</clipPath>
</defs>
</svg>
