<svg width="36" height="30" viewBox="0 0 36 30" fill="none" xmlns="http://www.w3.org/2000/svg">
<g clip-path="url(#clip0_1_841)">
<path d="M35.625 7.47142V6.99803C35.625 5.21566 33.903 3.76562 31.7865 3.76562H3.83848C1.72191 3.76562 0 5.21566 0 6.99803V7.47142V7.47487V23.002C0 24.7843 1.72191 26.2343 3.83848 26.2343H31.7867C33.9031 26.2343 35.625 24.7843 35.625 23.002V7.47487C35.625 7.47376 35.625 7.47259 35.625 7.47142ZM3.83848 5.52345H31.7865C32.752 5.52345 33.5376 6.18492 33.5376 6.99803V6.99844L19.5591 14.846C18.6287 15.3683 16.9964 15.3683 16.0662 14.846L2.08742 6.99839V6.99797C2.08742 6.18492 2.87291 5.52345 3.83848 5.52345ZM31.7867 24.4765H3.83848C2.87291 24.4765 2.08742 23.815 2.08742 23.002V9.111L14.9083 16.3086C15.7226 16.7658 16.7674 16.9943 17.8126 16.9943C18.8575 16.9943 19.9027 16.7657 20.717 16.3086L33.5376 9.111V23.002C33.5376 23.815 32.7521 24.4765 31.7867 24.4765Z" fill="#041E42"/>
</g>
<defs>
<clipPath id="clip0_1_841">
<rect width="35.625" height="30" fill="white"/>
</clipPath>
</defs>
</svg>
