<svg width="23" height="24" viewBox="0 0 23 24" fill="none" xmlns="http://www.w3.org/2000/svg">
<path d="M9.7268 12.917C9.55011 12.917 9.37342 12.9905 9.23883 13.1367L3.6689 19.19V15.6972C3.6689 15.2825 3.36038 14.9472 2.9787 14.9472C2.59702 14.9472 2.2885 15.2825 2.2885 15.6972V20.9997C2.2885 21.4145 2.59702 21.7497 2.9787 21.7497H7.85843C8.24011 21.7497 8.54863 21.4145 8.54863 20.9997C8.54863 20.585 8.24011 20.2497 7.85843 20.2497H4.64554L10.2148 14.1972C10.4846 13.904 10.4846 13.43 10.2148 13.1367C10.0802 12.9897 9.90349 12.917 9.7268 12.917Z" fill="#041E42"/>
<path d="M19.6202 2.33301H14.7404C14.3587 2.33301 14.0502 2.66826 14.0502 3.08301C14.0502 3.49776 14.3587 3.83301 14.7404 3.83301H17.954L12.3068 9.96951C12.0369 10.2628 12.0369 10.7368 12.3068 11.03C12.5766 11.3233 13.0129 11.3233 13.2827 11.03L18.9299 4.89351V8.38551C18.9299 8.80026 19.2385 9.13551 19.6202 9.13551C20.0018 9.13551 20.3104 8.80026 20.3104 8.38551V3.08301C20.3104 2.66901 20.0018 2.33301 19.6202 2.33301Z" fill="#041E42"/>
</svg>
