<svg width="34" height="35" viewBox="0 0 34 35" fill="none" xmlns="http://www.w3.org/2000/svg">
<g clip-path="url(#clip0_1_863)">
<path d="M31.3746 9.49639L31.3736 9.46915C31.3593 9.13296 31.3497 8.77728 31.3439 8.38155C31.317 6.45173 29.8706 4.85544 28.0508 4.74756C24.2566 4.52299 21.3215 3.21081 18.8136 0.618237L18.7922 0.596608C17.9742 -0.198869 16.7403 -0.198869 15.922 0.596608L15.9006 0.618237C13.3928 3.21081 10.4576 4.52299 6.66348 4.74783C4.84395 4.85544 3.39728 6.45173 3.37034 8.38181C3.3648 8.77488 3.35498 9.13056 3.34063 9.46915L3.33912 9.53244C3.26535 13.6359 3.17371 18.7428 4.78453 23.3781C5.67025 25.9272 7.01168 28.143 8.7713 29.9644C10.7754 32.0386 13.4003 33.6854 16.5731 34.8587C16.6763 34.8969 16.7836 34.9279 16.8929 34.9511C17.047 34.9837 17.202 35 17.3571 35C17.5122 35 17.6676 34.9837 17.8214 34.9511C17.9307 34.9279 18.0387 34.8966 18.1424 34.8582C21.3114 33.6827 23.9336 32.0352 25.9359 29.9612C27.6948 28.1392 29.0362 25.9229 29.9227 23.3733C31.5395 18.7241 31.4482 13.6076 31.3746 9.49639ZM28.1059 22.6627C26.407 27.5483 22.9389 30.9035 17.5034 32.9196C17.484 32.9265 17.4634 32.9326 17.442 32.9372C17.3858 32.9489 17.3287 32.9489 17.2718 32.9369C17.2506 32.9324 17.23 32.9265 17.2109 32.9196C11.7696 30.9072 8.29923 27.5539 6.60155 22.6681C5.11687 18.3954 5.20096 13.7074 5.27523 9.57169L5.27573 9.54873C5.29084 9.19331 5.30091 8.82107 5.30645 8.41199C5.31853 7.55509 5.96205 6.84613 6.77149 6.79834C8.91858 6.67123 10.8048 6.23117 12.538 5.45305C14.2689 4.676 15.8062 3.58065 17.2373 2.10452C17.3101 2.03936 17.4045 2.03909 17.477 2.10452C18.9083 3.58065 20.4456 4.676 22.1762 5.45305C23.9094 6.23117 25.7957 6.67123 27.943 6.79834C28.7525 6.84613 29.396 7.55509 29.4078 8.41225C29.4136 8.82348 29.4237 9.19571 29.4388 9.54873C29.5128 13.6893 29.5949 18.3809 28.1059 22.6627Z" fill="#041E42"/>
<path d="M17.3569 8.77832C12.822 8.77832 9.13281 12.6914 9.13281 17.5008C9.13281 22.3105 12.822 26.2236 17.3569 26.2236C21.8915 26.2236 25.5809 22.3105 25.5809 17.5008C25.5809 12.6914 21.8915 8.77832 17.3569 8.77832ZM17.3569 24.1696C13.8898 24.1696 11.0692 21.1781 11.0692 17.5008C11.0692 13.8236 13.8898 10.832 17.3569 10.832C20.8238 10.832 23.6443 13.8236 23.6443 17.5008C23.6443 21.1781 20.8238 24.1696 17.3569 24.1696Z" fill="#041E42"/>
<path d="M19.7204 14.7922L15.9005 18.8436L14.8637 17.7439C14.4856 17.3429 13.8725 17.3429 13.4944 17.7439C13.1165 18.145 13.1165 18.7952 13.4944 19.196L15.216 21.022C15.4051 21.2225 15.6528 21.3227 15.9005 21.3227C16.1483 21.3227 16.396 21.2225 16.5851 21.022L21.0898 16.2443C21.4677 15.8432 21.4677 15.193 21.0898 14.7922C20.7116 14.3909 20.0985 14.3909 19.7204 14.7922Z" fill="#041E42"/>
</g>
<defs>
<clipPath id="clip0_1_863">
<rect width="33" height="35" fill="white" transform="translate(0.856934)"/>
</clipPath>
</defs>
</svg>
