<svg width="34" height="35" viewBox="0 0 34 35" fill="none" xmlns="http://www.w3.org/2000/svg">
<path d="M17.4712 0C9.47481 0 2.96924 6.89985 2.96924 15.3809C2.96924 16.3207 2.96924 23.5914 2.96924 23.7207C2.96924 25.4169 4.27035 26.7969 5.86963 26.7969H7.00272C7.40181 27.9903 8.47644 28.8477 9.73682 28.8477C11.3361 28.8477 12.6372 27.4677 12.6372 25.7715V17.4316C12.6372 15.7354 11.3361 14.3555 9.73682 14.3555C8.47644 14.3555 7.40181 15.2128 7.00272 16.4062H5.86963C5.53067 16.4062 5.20544 16.4688 4.90283 16.5826V15.3809C4.90283 8.03065 10.541 2.05078 17.4712 2.05078C24.4014 2.05078 30.0396 8.03065 30.0396 15.3809V16.5826C29.7369 16.4688 29.4117 16.4062 29.0728 16.4062H27.9397C27.5406 15.2128 26.4659 14.3555 25.2056 14.3555C23.6063 14.3555 22.3052 15.7354 22.3052 17.4316V25.7715C22.3052 27.4677 23.6063 28.8477 25.2056 28.8477C25.4982 28.8477 25.7808 28.801 26.0474 28.7151C25.6857 29.9772 24.5786 30.8984 23.272 30.8984H20.2053C19.8062 29.705 18.7316 28.8477 17.4712 28.8477C15.8719 28.8477 14.5708 30.2276 14.5708 31.9238C14.5708 33.62 15.8719 35 17.4712 35C18.7316 35 19.8062 34.1426 20.2053 32.9492H23.272C25.9374 32.9492 28.106 30.6493 28.106 27.8223V26.7969H29.0728C30.672 26.7969 31.9731 25.4169 31.9731 23.7207C31.9731 23.5933 31.9731 16.32 31.9731 15.3809C31.9731 6.89985 25.4676 0 17.4712 0ZM8.77002 17.4316C8.77002 16.8662 9.20372 16.4062 9.73682 16.4062C10.2699 16.4062 10.7036 16.8662 10.7036 17.4316V25.7715C10.7036 26.3369 10.2699 26.7969 9.73682 26.7969C9.20372 26.7969 8.77002 26.3369 8.77002 25.7715V17.4316ZM5.86963 18.457H6.83643V24.7461H5.86963C5.33654 24.7461 4.90283 24.2861 4.90283 23.7207V19.4824C4.90283 18.917 5.33654 18.457 5.86963 18.457ZM17.4712 32.9492C16.9381 32.9492 16.5044 32.4892 16.5044 31.9238C16.5044 31.3584 16.9381 30.8984 17.4712 30.8984C18.0043 30.8984 18.438 31.3584 18.438 31.9238C18.438 32.4892 18.0043 32.9492 17.4712 32.9492ZM26.1724 25.7715C26.1724 26.3369 25.7387 26.7969 25.2056 26.7969C24.6725 26.7969 24.2388 26.3369 24.2388 25.7715V17.4316C24.2388 16.8662 24.6725 16.4062 25.2056 16.4062C25.7387 16.4062 26.1724 16.8662 26.1724 17.4316V25.7715ZM30.0396 23.7207C30.0396 24.2861 29.6058 24.7461 29.0728 24.7461H28.106V18.457H29.0728C29.6058 18.457 30.0396 18.917 30.0396 19.4824V23.7207Z" fill="#041E42"/>
</svg>
