<svg width="25" height="22" viewBox="0 0 25 22" fill="none" xmlns="http://www.w3.org/2000/svg">
<path d="M16.5296 3.55371C19.375 3.55371 21.681 5.68841 21.681 8.67701C21.681 14.6542 14.6564 18.0698 12.3149 19.3506C9.97333 18.0698 2.94873 14.6542 2.94873 8.67701C2.94873 5.68841 5.29027 3.55371 8.1001 3.55371C9.8422 3.55371 11.3782 4.40759 12.3149 5.26147C13.2514 4.40759 14.7875 3.55371 16.5296 3.55371ZM13.1897 16.8777C14.0148 16.403 14.7594 15.9308 15.4563 15.4253C18.2483 13.4016 19.8077 11.19 19.8077 8.67701C19.8077 6.66184 18.3682 5.26147 16.5296 5.26147C15.5218 5.26147 14.4316 5.74818 13.6392 6.46886L12.3149 7.67625L10.9905 6.46886C10.1981 5.74818 9.10789 5.26147 8.1001 5.26147C6.28307 5.26147 4.82196 6.6755 4.82196 8.67701C4.82196 11.1909 6.38235 13.4016 9.17252 15.4253C9.8703 15.9308 10.6149 16.403 11.4401 16.8769C11.7201 17.0383 11.9974 17.1928 12.3149 17.3653C12.6323 17.1928 12.9096 17.0383 13.1897 16.8777Z" fill="white"/>
</svg>
