<svg width="21" height="20" viewBox="0 0 21 20" fill="none" xmlns="http://www.w3.org/2000/svg">
<g clip-path="url(#clip0_1_2203)">
<path d="M12.0844 10H8.81845C8.3675 10 8.00195 9.65023 8.00195 9.21875C8.00195 8.78727 8.3675 8.4375 8.81845 8.4375H12.0844C12.5354 8.4375 12.9009 8.78727 12.9009 9.21875C12.9009 9.65023 12.5354 10 12.0844 10Z" fill="#041E42"/>
<path d="M12.0844 13.125H8.81845C8.3675 13.125 8.00195 12.7752 8.00195 12.3438C8.00195 11.9123 8.3675 11.5625 8.81845 11.5625H12.0844C12.5354 11.5625 12.9009 11.9123 12.9009 12.3438C12.9009 12.7752 12.5354 13.125 12.0844 13.125Z" fill="#041E42"/>
<path d="M16.8198 0.625H4.08247C1.8314 0.625 0 2.37734 0 4.53125V6.09375C0 7.48387 0.781916 8.78023 2.04062 9.47691C2.43099 9.69297 2.93044 9.56535 3.15624 9.19187C3.38204 8.8184 3.24867 8.34047 2.85834 8.12441C2.10251 7.70609 1.63299 6.92797 1.63299 6.09375V4.53125C1.63299 3.23891 2.73183 2.1875 4.08247 2.1875H16.8198C18.1704 2.1875 19.2693 3.23891 19.2693 4.53125V6.09375C19.2693 6.92797 18.7997 7.70609 18.0439 8.12441C17.6535 8.34047 17.5202 8.8184 17.746 9.19187C17.9718 9.56539 18.4713 9.69297 18.8616 9.47691C20.1203 8.78023 20.9023 7.48387 20.9023 6.09375V4.53125C20.9023 2.37734 19.0709 0.625 16.8198 0.625Z" fill="#041E42"/>
<path d="M16.8194 3.75H4.08212C3.63117 3.75 3.26562 4.09977 3.26562 4.53125C3.26562 4.96273 3.63117 5.3125 4.08212 5.3125H4.73532V18.5938C4.73532 19.0252 5.10086 19.375 5.55181 19.375C6.00276 19.375 6.3683 19.0252 6.3683 18.5938C6.3683 18.163 6.73458 17.8125 7.1848 17.8125C7.63501 17.8125 8.00129 18.163 8.00129 18.5938C8.00129 19.0252 8.36684 19.375 8.81779 19.375C9.26874 19.375 9.63428 19.0252 9.63428 18.5938C9.63428 18.163 10.0006 17.8125 10.4508 17.8125C10.901 17.8125 11.2673 18.163 11.2673 18.5938C11.2673 19.0252 11.6328 19.375 12.0838 19.375C12.5347 19.375 12.9003 19.0252 12.9003 18.5938C12.9003 18.163 13.2665 17.8125 13.7168 17.8125C14.167 17.8125 14.5332 18.163 14.5332 18.5938C14.5332 19.0252 14.8988 19.375 15.3497 19.375C15.8007 19.375 16.1662 19.0252 16.1662 18.5938V5.3125H16.8194C17.2704 5.3125 17.6359 4.96273 17.6359 4.53125C17.6359 4.09977 17.2704 3.75 16.8194 3.75ZM14.5332 16.3839C14.2778 16.2972 14.0029 16.25 13.7168 16.25C13.09 16.25 12.5174 16.4764 12.0838 16.8482C11.6501 16.4764 11.0776 16.25 10.4508 16.25C9.82399 16.25 9.25147 16.4764 8.81779 16.8482C8.38411 16.4764 7.81158 16.25 7.1848 16.25C6.89866 16.25 6.62379 16.2972 6.3683 16.3839V5.3125H14.5332V16.3839Z" fill="#041E42"/>
</g>
<defs>
<clipPath id="clip0_1_2203">
<rect width="20.9023" height="20" fill="white"/>
</clipPath>
</defs>
</svg>
