<svg width="19" height="16" viewBox="0 0 19 16" fill="none" xmlns="http://www.w3.org/2000/svg">
<path d="M12.5639 2.58496C14.773 2.58496 16.5634 4.13747 16.5634 6.31099C16.5634 10.658 11.1096 13.1421 9.29169 14.0736C7.47373 13.1421 2.01996 10.658 2.01996 6.31099C2.01996 4.13747 3.83788 2.58496 6.01939 2.58496C7.37192 2.58496 8.56448 3.20597 9.29169 3.82697C10.0188 3.20597 11.2114 2.58496 12.5639 2.58496ZM9.97084 12.2751C10.6114 11.9299 11.1896 11.5865 11.7306 11.2188C13.8983 9.74703 15.109 8.1386 15.109 6.31099C15.109 4.84542 13.9913 3.82697 12.5639 3.82697C11.7814 3.82697 10.935 4.18094 10.3198 4.70507L9.29169 5.58317L8.26343 4.70507C7.64825 4.18094 6.80182 3.82697 6.01939 3.82697C4.60868 3.82697 3.4743 4.85536 3.4743 6.31099C3.4743 8.13925 4.68576 9.74703 6.852 11.2188C7.39374 11.5865 7.97184 11.9299 8.61248 12.2745C8.82986 12.3919 9.04515 12.5043 9.29169 12.6297C9.53814 12.5043 9.75343 12.3919 9.97084 12.2751Z" fill="#041E42"/>
</svg>
