<svg width="21" height="20" viewBox="0 0 21 20" fill="none" xmlns="http://www.w3.org/2000/svg">
<g clip-path="url(#clip0_1_2199)">
<path d="M16.6369 2.45508C14.9904 0.872921 12.7969 0.00157482 10.4605 0.00157482H10.4504C5.7454 -0.0905673 1.61769 3.87408 1.71456 8.37432C1.83772 11.552 5.03265 15.5877 7.52067 18.6881C8.25134 19.5233 9.31597 20 10.4597 20C11.6436 20 12.7427 19.4896 13.4753 18.5996C15.321 16.405 19.3065 11.1265 19.1862 8.37424C19.1863 6.13701 18.2809 4.03489 16.6369 2.45508V2.45508ZM12.1926 17.6329C11.3489 18.6978 9.57397 18.6997 8.72989 17.6347C5.35625 13.5243 3.34736 10.1012 3.34736 8.37428C3.34736 4.61907 6.53376 1.56401 10.4504 1.56401H10.4605C14.3715 1.56401 17.5534 4.61911 17.5534 8.37428C17.5534 10.12 15.5994 13.4946 12.1926 17.6329V17.6329ZM10.4963 11.6803C8.58298 11.6803 7.02639 10.191 7.02639 8.36026C7.21699 3.95572 13.7762 3.95701 13.9661 8.3603C13.9661 10.191 12.4095 11.6803 10.4963 11.6803ZM10.4963 6.60257C9.48334 6.60257 8.65927 7.39107 8.65927 8.36026C8.76018 10.6921 12.2327 10.6914 12.3332 8.36026C12.3332 7.39107 11.5092 6.60257 10.4963 6.60257Z" fill="#041E42"/>
</g>
<defs>
<clipPath id="clip0_1_2199">
<rect width="20.9023" height="20" fill="white"/>
</clipPath>
</defs>
</svg>
