<svg width="21" height="20" viewBox="0 0 21 20" fill="none" xmlns="http://www.w3.org/2000/svg">
<g clip-path="url(#clip0_1_2212)">
<path d="M11.0636 20H16.0034C18.7047 20 20.9023 17.8972 20.9023 15.3125V4.6875C20.9023 2.10281 18.7047 0 16.0034 0H11.0636C8.3623 0 6.16462 2.10281 6.16462 4.6875V5.46875C6.16462 5.90023 6.53016 6.25 6.98111 6.25C7.43206 6.25 7.79761 5.90023 7.79761 5.46875V4.6875C7.79761 2.96438 9.26273 1.5625 11.0636 1.5625H16.0034C17.8042 1.5625 19.2694 2.96438 19.2694 4.6875V15.3125C19.2694 17.0356 17.8042 18.4375 16.0034 18.4375H11.0636C9.26273 18.4375 7.79761 17.0356 7.79761 15.3125V14.5312C7.79761 14.0998 7.43206 13.75 6.98111 13.75C6.53016 13.75 6.16462 14.0998 6.16462 14.5312V15.3125C6.16462 17.8972 8.3623 20 11.0636 20Z" fill="#041E42"/>
<path d="M3.1848 13.75C3.39415 13.75 3.60342 13.6734 3.76292 13.5204C4.08136 13.2149 4.08066 12.7202 3.76137 12.4155L1.87164 10.6122C1.71801 10.4657 1.63346 10.2711 1.63346 10.0644C1.63346 9.85832 1.71744 9.66441 1.86992 9.51812L3.75692 7.74488C4.07866 7.44254 4.08331 6.94793 3.76737 6.64008C3.45143 6.33226 2.93443 6.32777 2.61273 6.63008L0.722992 8.4059C0.721522 8.40726 0.720093 8.40863 0.718624 8.41004C0.255549 8.8518 0.000516889 9.43933 0.000516889 10.0644C0.000557714 10.6894 0.255549 11.2769 0.718665 11.7187L2.60828 13.5219C2.76758 13.6739 2.97623 13.75 3.1848 13.75V13.75ZM3.22563 9.99996C3.22563 9.56847 3.59117 9.21871 4.04212 9.21871H12.8603C13.3112 9.21871 13.6768 9.56847 13.6768 9.99996C13.6768 10.4314 13.3112 10.7812 12.8603 10.7812H4.04212C3.59117 10.7812 3.22563 10.4314 3.22563 9.99996Z" fill="#041E42"/>
</g>
<defs>
<clipPath id="clip0_1_2212">
<rect width="20.9023" height="20" fill="white" transform="matrix(-1 0 0 1 20.9023 0)"/>
</clipPath>
</defs>
</svg>
