<svg width="41" height="40" viewBox="0 0 41 40" fill="none" xmlns="http://www.w3.org/2000/svg">
<g clip-path="url(#clip0_1_1908)">
<path d="M37.1136 10.853L37.1124 10.8219C37.0953 10.4377 37.0839 10.0312 37.077 9.57891C37.0448 7.37341 35.3188 5.54907 33.1472 5.42578C28.6196 5.16913 25.1171 3.6695 22.1244 0.706556L22.0989 0.681837C21.1227 -0.227279 19.6503 -0.227279 18.6738 0.681837L18.6483 0.706556C15.6556 3.6695 12.1531 5.16913 7.62549 5.42609C5.45421 5.54907 3.72789 7.37341 3.69574 9.57921C3.68913 10.0284 3.67741 10.4349 3.66029 10.8219L3.65848 10.8942C3.57046 15.5838 3.4611 21.4203 5.38331 26.7178C6.44025 29.631 8.04099 32.1634 10.1408 34.245C12.5323 36.6156 15.6646 38.4976 19.4508 39.8385C19.574 39.8822 19.702 39.9176 19.8323 39.9441C20.0162 39.9814 20.2013 40 20.3864 40C20.5714 40 20.7568 39.9814 20.9404 39.9441C21.0708 39.9176 21.1996 39.8819 21.3234 39.8379C25.1051 38.4945 28.2341 36.6116 30.6235 34.2413C32.7224 32.1591 34.3231 29.6262 35.381 26.7123C37.3104 21.3989 37.2013 15.5515 37.1136 10.853ZM33.213 25.9003C31.1856 31.4838 27.0471 35.3183 20.5609 37.6224C20.5378 37.6303 20.5131 37.6373 20.4876 37.6425C20.4206 37.6559 20.3524 37.6559 20.2845 37.6422C20.2593 37.637 20.2346 37.6303 20.2118 37.6224C13.7187 35.3226 9.57744 31.4902 7.55158 25.9064C5.77989 21.0233 5.88023 15.6656 5.96886 10.9391L5.96946 10.9128C5.98749 10.5066 5.99951 10.0812 6.00612 9.6137C6.02054 8.63439 6.78846 7.82415 7.75437 7.76953C10.3165 7.62426 12.5674 7.12133 14.6356 6.23205C16.7012 5.344 18.5356 4.09217 20.2433 2.40516C20.3302 2.3307 20.4428 2.33039 20.5294 2.40516C22.2374 4.09217 24.0718 5.344 26.1371 6.23205C28.2053 7.12133 30.4562 7.62426 33.0186 7.76953C33.9845 7.82415 34.7525 8.63439 34.7666 9.614C34.7735 10.084 34.7855 10.5094 34.8035 10.9128C34.8919 15.6449 34.9898 21.0068 33.213 25.9003Z" fill="#041E42"/>
<path d="M20.3861 10.0322C14.9746 10.0322 10.5723 14.5043 10.5723 20.0008C10.5723 25.4976 14.9746 29.9697 20.3861 29.9697C25.7974 29.9697 30.2 25.4976 30.2 20.0008C30.2 14.5043 25.7974 10.0322 20.3861 10.0322ZM20.3861 27.6223C16.2488 27.6223 12.883 24.2034 12.883 20.0008C12.883 15.7982 16.2488 12.3793 20.3861 12.3793C24.5232 12.3793 27.889 15.7982 27.889 20.0008C27.889 24.2034 24.5232 27.6223 20.3861 27.6223Z" fill="#041E42"/>
<path d="M23.2063 16.9055L18.648 21.5357L17.4108 20.2789C16.9595 19.8206 16.228 19.8206 15.7767 20.2789C15.3257 20.7373 15.3257 21.4804 15.7767 21.9385L17.8311 24.0253C18.0567 24.2545 18.3524 24.3689 18.648 24.3689C18.9436 24.3689 19.2393 24.2545 19.4649 24.0253L24.8404 18.5651C25.2913 18.1067 25.2913 17.3636 24.8404 16.9055C24.3891 16.4469 23.6575 16.4469 23.2063 16.9055Z" fill="#041E42"/>
</g>
<defs>
<clipPath id="clip0_1_1908">
<rect width="39.3793" height="40" fill="white" transform="translate(0.696289)"/>
</clipPath>
</defs>
</svg>
