<svg width="19" height="20" viewBox="0 0 19 20" fill="none" xmlns="http://www.w3.org/2000/svg">
<path d="M1.05807 19.961C0.607996 19.961 0.243164 19.6119 0.243164 19.1813C0.243164 15.2688 3.5698 12.0858 7.65878 12.0858H8.88113C9.77887 12.0858 10.6567 12.2378 11.4904 12.5377C11.9116 12.6892 12.1248 13.1388 11.9664 13.5419C11.8081 13.945 11.3382 14.149 10.9169 13.9974C10.2672 13.7637 9.58228 13.6452 8.88113 13.6452H7.65878C4.46848 13.6452 1.87297 16.1287 1.87297 19.1813C1.87297 19.6119 1.50814 19.961 1.05807 19.961V19.961ZM13.6891 5.26316C13.6891 2.36105 11.2215 0 8.18847 0C5.15544 0 2.68787 2.36105 2.68787 5.26316C2.68787 8.16526 5.15544 10.5263 8.18847 10.5263C11.2215 10.5263 13.6891 8.16526 13.6891 5.26316ZM12.0593 5.26316C12.0593 7.30538 10.3228 8.96686 8.18847 8.96686C6.05411 8.96686 4.31768 7.30538 4.31768 5.26316C4.31768 3.22094 6.05411 1.55945 8.18847 1.55945C10.3228 1.55945 12.0593 3.22094 12.0593 5.26316ZM18.66 17.6218V15.5625C18.66 14.2473 17.5418 13.1774 16.1673 13.1774H14.015C13.565 13.1774 13.2001 13.5265 13.2001 13.9571C13.2001 14.3878 13.565 14.7368 14.015 14.7368H16.1673C16.6431 14.7368 17.0302 15.1072 17.0302 15.5625V17.6218C17.0302 18.0525 17.395 18.4016 17.8451 18.4016C18.2951 18.4016 18.66 18.0525 18.66 17.6218ZM15.8263 17.1463C16.1371 16.8349 16.1253 16.3413 15.7998 16.0439C15.4743 15.7466 14.9585 15.7579 14.6476 16.0693C13.1436 17.5763 11.0322 18.4405 8.85445 18.4405H8.47368C8.02361 18.4405 7.65878 18.7896 7.65878 19.2203C7.65878 19.6509 8.02361 20 8.47368 20H8.85445C11.4752 20 14.0164 18.9598 15.8263 17.1463V17.1463Z" fill="#041E42"/>
</svg>
