<svg width="21" height="22" viewBox="0 0 21 22" fill="none" xmlns="http://www.w3.org/2000/svg">
<g clip-path="url(#clip0_41_70)">
<path d="M5.68871 11.6037L14.7582 21.7512C15.0553 22.0835 15.5364 22.0829 15.8331 21.7495C16.1295 21.4161 16.1287 20.876 15.8315 20.5435L7.30191 11L15.8318 1.45648C16.129 1.1239 16.1298 0.584175 15.8334 0.250738C15.6847 0.0835907 15.4898 1.5919e-05 15.295 1.58998e-05C15.1007 1.58808e-05 14.9066 0.0830317 14.7582 0.249019L5.68871 10.3963C5.54559 10.556 5.46528 10.7734 5.46528 11C5.46528 11.2265 5.54582 11.4437 5.68871 11.6037Z" fill="#112137"/>
</g>
<defs>
<clipPath id="clip0_41_70">
<rect width="19.6084" height="22" fill="white" transform="translate(20.5645 22) rotate(-180)"/>
</clipPath>
</defs>
</svg>
