<svg width="21" height="20" viewBox="0 0 21 20" fill="none" xmlns="http://www.w3.org/2000/svg">
<g clip-path="url(#clip0_1_2197)">
<path d="M20.9023 4.6875V8.4375C20.8591 9.47406 19.312 9.47328 19.2693 8.4375V4.6875C19.2693 2.96438 17.8042 1.5625 16.0033 1.5625H4.89897C3.09811 1.5625 1.63299 2.96438 1.63299 4.6875V15.3125C1.63299 17.0356 3.09811 18.4375 4.89897 18.4375H8.98144C10.0648 18.4787 10.0639 19.9591 8.98144 20H4.89897C2.19768 20 0 17.8972 0 15.3125V4.6875C0 2.10281 2.19768 0 4.89897 0H16.0033C18.7046 0 20.9023 2.10281 20.9023 4.6875ZM13.3497 4.29688C13.3497 3.86539 12.9841 3.51562 12.5332 3.51562H8.36907C7.28574 3.55687 7.28656 5.03723 8.36907 5.07812H12.5332C12.9841 5.07812 13.3497 4.72836 13.3497 4.29688ZM20.0858 15.515C19.6616 15.3687 19.1937 15.5793 19.0408 15.9851C17.5036 19.8566 11.5864 18.8748 11.5126 14.7265C11.4754 12.0763 14.4944 10.1896 17.0093 11.3739C17.419 11.5541 17.9038 11.3825 18.0923 10.9905C18.2807 10.5985 18.1014 10.1346 17.6917 9.9543C14.123 8.2866 9.82386 10.9572 9.87962 14.7266C9.98475 20.6214 18.3933 22.0168 20.577 16.5149C20.7299 16.109 20.51 15.6614 20.0858 15.515V15.515ZM17.4794 15.7368L20.6658 12.6592C20.9832 12.3527 20.9808 11.858 20.6604 11.5544C20.3401 11.2507 19.8231 11.253 19.5057 11.5595L16.3178 14.6386C16.1533 14.8061 15.858 14.8064 15.694 14.6411L14.5462 13.5166C14.2311 13.208 13.7142 13.2022 13.3916 13.5036C13.069 13.8052 13.0629 14.2998 13.378 14.6084L14.5283 15.7352C14.922 16.1176 15.4463 16.3282 16.0047 16.3282C16.5631 16.3282 17.0874 16.1175 17.4794 15.7368V15.7368Z" fill="#041E42"/>
</g>
<defs>
<clipPath id="clip0_1_2197">
<rect width="20.9023" height="20" fill="white"/>
</clipPath>
</defs>
</svg>
