<svg width="41" height="38" viewBox="0 0 41 38" fill="none" xmlns="http://www.w3.org/2000/svg">
<path d="M40.1136 21.6656L37.1244 4.44562C36.7181 2.10599 34.5134 0.538066 32.2105 0.95067L6.57269 5.54266C4.26929 5.95518 2.72577 8.19423 3.1319 10.5339L3.35154 11.7993C1.85144 12.464 0.799805 13.9843 0.799805 15.7502V32.8057C0.799805 35.1814 2.70263 37.1142 5.04151 37.1142H30.4918C32.8306 37.1142 34.7335 35.1814 34.7335 32.8057V27.0042L36.6728 26.6568C37.7886 26.457 38.7609 25.8278 39.4108 24.885C40.0607 23.9423 40.3103 22.7988 40.1136 21.6656ZM37.5156 23.537C37.2203 23.9655 36.7782 24.2515 36.271 24.3424L34.7335 24.6178V23.2783V17.9475V15.7501C34.7335 13.3744 32.8306 11.4416 30.4918 11.4416H5.6389L5.41046 10.1257C5.321 9.61057 5.43453 9.09088 5.7299 8.66229C6.02528 8.23379 6.46734 7.94778 6.9745 7.8569L32.6123 3.26499C32.7251 3.24478 32.8373 3.23507 32.9481 3.23507C33.8655 3.23507 34.6812 3.9047 34.8459 4.8536L37.8351 22.0736C37.9245 22.5888 37.811 23.1085 37.5156 23.537ZM30.4918 34.7641H5.04151C3.97839 34.7641 3.11346 33.8856 3.11346 32.8057V24.4534H32.4198V32.8056C32.4198 33.8856 31.5549 34.7641 30.4918 34.7641ZM5.04151 13.7918H30.4918C31.5549 13.7918 32.4198 14.6703 32.4198 15.7502V16.7725H3.11346V15.7502C3.11346 14.6703 3.97839 13.7918 5.04151 13.7918ZM32.4198 19.1226V22.1034H3.11346V19.1226H32.4198Z" fill="#041E42"/>
</svg>
