<svg width="36" height="30" viewBox="0 0 36 30" fill="none" xmlns="http://www.w3.org/2000/svg">
<g clip-path="url(#clip0_1_846)">
<path d="M30.6824 22.7609L25.287 19.7752C24.0027 19.0645 22.3355 19.1263 21.138 19.9285C20.0894 20.6314 18.5839 20.5595 17.6364 19.7614L12.1581 15.1483C11.2106 14.3502 11.1252 13.0824 11.9597 12.1994C12.9126 11.1909 12.9857 9.78698 12.1418 8.70552L8.59617 4.16199C7.9762 3.36754 7.01459 2.89215 5.88826 2.82326C4.76193 2.75505 3.72937 3.10821 2.97976 3.81912C-1.1733 7.75726 -0.960486 13.7606 3.4641 17.4863L14.8597 27.0829C17.1619 29.0215 20.1959 29.9998 23.2363 29.9998C26.0388 29.9998 28.8467 29.1682 31.0898 27.4908C31.934 26.8593 32.354 25.9895 32.2722 25.0413C32.1906 24.093 31.6261 23.2832 30.6824 22.7609ZM29.7039 26.1765C25.8523 29.057 19.9801 28.9091 16.3356 25.8401L4.93969 16.2437C1.29543 13.1747 1.11985 8.22967 4.54014 4.98596C4.82988 4.7113 5.19083 4.57237 5.61429 4.57237C5.65478 4.57237 5.69583 4.57374 5.73741 4.57626C6.21442 4.60533 6.58922 4.79072 6.85205 5.12718L10.3976 9.67071C10.7504 10.123 10.7227 10.686 10.3264 11.1051C8.83074 12.6881 8.98376 14.9606 10.6822 16.3911L16.1606 21.0043C17.859 22.4348 20.5577 22.5636 22.4374 21.3039C22.9351 20.9704 23.6037 20.9468 24.1408 21.2441L29.5362 24.2297H29.536C29.9358 24.451 30.1559 24.7666 30.1905 25.1683C30.225 25.57 30.0614 25.9092 29.7039 26.1765Z" fill="#041E42"/>
<path d="M35.3193 0.257492C35.1236 0.0926971 34.8583 0 34.5816 0H28.2855C27.709 0 27.2418 0.393448 27.2418 0.878906C27.2418 1.36414 27.709 1.75758 28.2855 1.75758H32.0667L20.4156 11.5945C20.0084 11.938 20.0095 12.4944 20.4175 12.8373C20.621 13.0083 20.8877 13.0939 21.1543 13.0939C21.4218 13.0939 21.6895 13.0078 21.8933 12.8357L33.5379 3.0043L33.5377 6.1805C33.5377 6.66595 34.0049 7.0594 34.5811 7.0594H34.5814C35.1576 7.0594 35.6248 6.66595 35.6248 6.1805L35.6251 0.878677C35.6251 0.645905 35.5153 0.422287 35.3193 0.257492Z" fill="#041E42"/>
</g>
<defs>
<clipPath id="clip0_1_846">
<rect width="35.625" height="30" fill="white"/>
</clipPath>
</defs>
</svg>
