<svg width="23" height="20" viewBox="0 0 23 20" fill="none" xmlns="http://www.w3.org/2000/svg">
<path d="M11.6019 9.16634C12.4822 9.16634 13.3427 8.922 14.0746 8.46409C14.8065 8.00629 15.377 7.35555 15.7138 6.59419C16.0506 5.83283 16.1388 4.99505 15.967 4.1868C15.7953 3.37855 15.3714 2.63611 14.749 2.0534C14.1266 1.47068 13.3336 1.07384 12.4703 0.913073C11.6068 0.752298 10.712 0.834815 9.89878 1.15017C9.08552 1.46554 8.39043 1.9996 7.90138 2.6848C7.41234 3.37001 7.15132 4.17559 7.15132 4.99967C7.15273 6.10434 7.62209 7.16337 8.45644 7.94449C9.29079 8.72559 10.422 9.165 11.6019 9.16634ZM11.6019 2.49967C12.1301 2.49967 12.6464 2.6463 13.0855 2.921C13.5247 3.19571 13.867 3.58615 14.069 4.04296C14.2712 4.49978 14.324 5.00245 14.221 5.4874C14.118 5.97235 13.8637 6.41781 13.4902 6.76744C13.1168 7.11707 12.6409 7.35517 12.1229 7.45164C11.6049 7.5481 11.068 7.49859 10.58 7.30937C10.0921 7.12015 9.67504 6.79972 9.38161 6.3886C9.08819 5.97748 8.93157 5.49413 8.93157 4.99967C8.93157 4.33663 9.21291 3.70075 9.7137 3.23191C10.2145 2.76306 10.8938 2.49967 11.6019 2.49967ZM3.59082 18.333V14.9997C3.59224 13.895 4.06159 12.836 4.89594 12.0548C5.73029 11.2738 6.8615 10.8343 8.04144 10.833H15.1624C16.3424 10.8343 17.4736 11.2738 18.308 12.0548C19.1423 12.836 19.6116 13.895 19.6131 14.9997V18.333C19.6131 18.554 19.5192 18.766 19.3523 18.9223C19.1854 19.0785 18.959 19.1663 18.7229 19.1663C18.4869 19.1663 18.2604 19.0785 18.0935 18.9223C17.9266 18.766 17.8328 18.554 17.8328 18.333V14.9997C17.8328 14.3367 17.5514 13.7008 17.0507 13.2319C16.5499 12.7631 15.8706 12.4997 15.1624 12.4997H8.04144C7.33322 12.4997 6.654 12.7631 6.1532 13.2319C5.65241 13.7008 5.37107 14.3367 5.37107 14.9997V18.333C5.37107 18.554 5.27729 18.766 5.11036 18.9223C4.94343 19.0785 4.71702 19.1663 4.48095 19.1663C4.24487 19.1663 4.01846 19.0785 3.85153 18.9223C3.6846 18.766 3.59082 18.554 3.59082 18.333Z" fill="white"/>
</svg>
