<svg width="14" height="14" viewBox="0 0 14 14" fill="none" xmlns="http://www.w3.org/2000/svg">
<path d="M0.720901 14.0001C0.594744 14.0001 0.471414 13.96 0.366511 13.8849C0.261607 13.8098 0.179844 13.703 0.131562 13.5781C0.083281 13.4532 0.0706508 13.3157 0.0952693 13.1831C0.119888 13.0505 0.180649 12.9287 0.269867 12.8331L12.0559 0.200246C12.1756 0.0720308 12.3378 0 12.507 0C12.6761 0 12.8384 0.0720308 12.958 0.200246C13.0776 0.328462 13.1448 0.50236 13.1448 0.683684C13.1448 0.865008 13.0776 1.03891 12.958 1.16712L1.17194 13.7999C1.11276 13.8635 1.04245 13.9139 0.965049 13.9482C0.887647 13.9826 0.804676 14.0002 0.720901 14.0001Z" fill="#041E42"/>
<path d="M11.5069 14.0001C11.4232 14.0002 11.3402 13.9826 11.2628 13.9482C11.1854 13.9139 11.1151 13.8635 11.0559 13.7999L-0.730168 1.16712C-0.849789 1.03891 -0.916992 0.865008 -0.916992 0.683684C-0.916992 0.50236 -0.849789 0.328462 -0.730168 0.200246C-0.610546 0.0720308 -0.448304 0 -0.279134 0C-0.109963 0 0.0522788 0.0720308 0.1719 0.200246L11.958 12.8331C12.0472 12.9287 12.108 13.0505 12.1326 13.1831C12.1572 13.3157 12.1446 13.4532 12.0963 13.5781C12.048 13.703 11.9662 13.8098 11.8613 13.8849C11.7564 13.96 11.6331 14.0001 11.5069 14.0001Z" fill="#041E42"/>
</svg>
