<svg width="24" height="24" viewBox="0 0 24 24" fill="none" xmlns="http://www.w3.org/2000/svg">
<g clip-path="url(#clip0_1_1470)">
<path d="M2.87639 14.0605H3.25111C3.51 14.0605 3.71986 13.8506 3.71986 13.5918C3.71986 13.333 3.51 13.123 3.25111 13.123H2.87639C2.6175 13.123 2.40764 13.333 2.40764 13.5918C2.40764 13.8506 2.6175 14.0605 2.87639 14.0605Z" fill="#041E42"/>
<path d="M7.97067 14.0605C8.22956 14.0605 8.43942 13.8506 8.43942 13.5918C8.43942 13.333 8.22956 13.123 7.97067 13.123H5.12724C4.86834 13.123 4.65849 13.333 4.65849 13.5918C4.65849 13.8506 4.86834 14.0605 5.12724 14.0605H7.97067Z" fill="#041E42"/>
<path d="M2.87639 16.2861H7.97067C8.22956 16.2861 8.43942 16.0762 8.43942 15.8174C8.43942 15.5585 8.22956 15.3486 7.97067 15.3486H2.87639C2.6175 15.3486 2.40764 15.5585 2.40764 15.8174C2.40764 16.0762 2.6175 16.2861 2.87639 16.2861Z" fill="#041E42"/>
<path d="M18.4088 9.69131V1.82948C18.4088 0.988687 17.724 0.304688 16.8824 0.304688H1.52508C0.684141 0.304688 0 0.988734 0 1.82948V7.40189C0 7.66073 0.209859 7.87064 0.46875 7.87064C0.727641 7.87064 0.9375 7.66073 0.9375 7.40189V1.82948C0.9375 1.50563 1.20108 1.24219 1.52508 1.24219H5.87292V7.3222C5.87292 7.49208 5.96484 7.64869 6.11316 7.73147C6.26147 7.81425 6.44302 7.81041 6.58762 7.7212L9.20372 6.1088L11.8198 7.7212C12.127 7.91058 12.5345 7.68136 12.5345 7.32216V1.24219H16.8824C17.2071 1.24219 17.4713 1.50563 17.4713 1.82948V9.55434C17.2883 9.54014 17.1034 9.53273 16.9169 9.53273C13.0113 9.53273 9.83381 12.7094 9.83381 16.614C9.83381 17.008 9.86672 17.3945 9.92892 17.7712H1.52508C1.20108 17.7712 0.9375 17.5071 0.9375 17.1825V11.6101C0.9375 11.3513 0.727641 11.1414 0.46875 11.1414C0.209859 11.1414 0 11.3513 0 11.6101V17.1826C0 18.0241 0.684141 18.7087 1.52508 18.7087H10.1502C11.0456 21.5939 13.7404 23.6953 16.9169 23.6953C20.8225 23.6953 24 20.5186 24 16.614C24 13.221 21.6004 10.3781 18.4088 9.69131ZM11.597 6.48267L9.44967 5.15916C9.29887 5.06625 9.10856 5.06625 8.95777 5.15916L6.81042 6.48267V1.24219H11.597V6.48267ZM16.9169 22.7578C13.5282 22.7578 10.7713 20.0017 10.7713 16.614C10.7713 13.2264 13.5282 10.4703 16.9169 10.4703C20.3056 10.4703 23.0625 13.2263 23.0625 16.614C23.0625 20.0018 20.3056 22.7578 16.9169 22.7578Z" fill="#041E42"/>
<path d="M17.7686 13.8989H15.978L16.8137 13.0641C16.9969 12.8811 16.9971 12.5843 16.8141 12.4011C16.6312 12.218 16.3344 12.2179 16.1512 12.4008L14.5142 14.036C14.3335 14.2151 14.3335 14.5202 14.5142 14.6992L16.1512 16.3345C16.2427 16.4259 16.3626 16.4716 16.4824 16.4716C16.6025 16.4716 16.7225 16.4257 16.8141 16.3341C16.997 16.151 16.9969 15.8541 16.8137 15.6711L15.978 14.8363H17.7687C18.903 14.8363 19.8258 15.7588 19.8258 16.8928C19.8258 18.0274 18.903 18.9505 17.7687 18.9505H13.5394C13.2805 18.9505 13.0706 19.1604 13.0706 19.4193C13.0706 19.6781 13.2805 19.888 13.5394 19.888H17.7687C19.4199 19.888 20.7633 18.5443 20.7633 16.8928C20.7632 15.242 19.4199 13.8989 17.7686 13.8989Z" fill="#041E42"/>
<path d="M0.46875 9.97592C0.727641 9.97592 0.9375 9.7647 0.9375 9.50586C0.9375 9.24702 0.727641 9.03711 0.46875 9.03711C0.209859 9.03711 0 9.24702 0 9.50586V9.50853C0 9.76738 0.209859 9.97592 0.46875 9.97592Z" fill="#041E42"/>
</g>
<defs>
<clipPath id="clip0_1_1470">
<rect width="24" height="24" fill="white"/>
</clipPath>
</defs>
</svg>
