<svg width="12" height="10" viewBox="0 0 12 10" fill="none" xmlns="http://www.w3.org/2000/svg">
<path d="M11.3885 3.83573C11.3166 3.63325 11.1204 3.48989 10.8893 3.47074L7.73642 3.20866L6.4904 0.537725C6.39841 0.341494 6.18908 0.214844 5.9561 0.214844C5.72311 0.214844 5.5137 0.341494 5.42229 0.537725L4.17627 3.20866L1.02293 3.47074C0.791775 3.49027 0.596035 3.63363 0.523706 3.83573C0.451793 4.03822 0.518206 4.26032 0.69303 4.4007L3.07633 6.3141L2.37361 9.14786C2.3222 9.35622 2.41053 9.57168 2.59935 9.69665C2.70085 9.76417 2.82009 9.79789 2.93975 9.79789C3.04258 9.79789 3.14549 9.77287 3.2374 9.72251L5.9561 8.23415L8.67429 9.72251C8.8737 9.83161 9.12444 9.82162 9.31284 9.69665C9.50167 9.57168 9.58999 9.35622 9.53858 9.14786L8.83587 6.3141L11.2192 4.4007C11.3939 4.26032 11.4604 4.03868 11.3885 3.83573V3.83573Z" fill="#F5C34B"/>
</svg>
