<svg width="21" height="20" viewBox="0 0 21 20" fill="none" xmlns="http://www.w3.org/2000/svg">
<path d="M9.22136 1.60938C5.10479 1.60938 1.75146 4.97548 1.75146 9.10776C1.75146 13.24 5.10479 16.6127 9.22136 16.6127C10.9797 16.6127 12.5968 15.9941 13.8748 14.9671L16.9863 18.0889C17.1434 18.24 17.3531 18.3233 17.5706 18.3211C17.7881 18.3189 17.9961 18.2312 18.15 18.0769C18.3039 17.9227 18.3915 17.714 18.394 17.4957C18.3966 17.2774 18.3138 17.0667 18.1635 16.9089L15.052 13.7856C16.0759 12.5006 16.6929 10.8748 16.6929 9.10776C16.6929 4.97548 13.3379 1.60938 9.22136 1.60938ZM9.22136 3.27607C12.4406 3.27607 15.0309 5.87623 15.0309 9.10776C15.0309 12.3393 12.4406 14.946 9.22136 14.946C6.0021 14.946 3.4118 12.3393 3.4118 9.10776C3.4118 5.87623 6.0021 3.27607 9.22136 3.27607Z" fill="#443297"/>
</svg>
