<svg width="23" height="20" viewBox="0 0 23 20" fill="none" xmlns="http://www.w3.org/2000/svg">
<g clip-path="url(#clip0_7_3829)">
<path fill-rule="evenodd" clip-rule="evenodd" d="M16.7705 17.4997C16.7705 16.5792 17.5626 15.833 18.5397 15.833C19.5169 15.833 20.3089 16.5792 20.3089 17.4997C20.3089 18.4202 19.5169 19.1663 18.5397 19.1663C17.5626 19.1663 16.7705 18.4202 16.7705 17.4997Z" fill="white"/>
<path fill-rule="evenodd" clip-rule="evenodd" d="M7.04004 17.4997C7.04004 16.5792 7.83215 15.833 8.80926 15.833C9.7864 15.833 10.5785 16.5792 10.5785 17.4997C10.5785 18.4202 9.7864 19.1663 8.80926 19.1663C7.83215 19.1663 7.04004 18.4202 7.04004 17.4997Z" fill="white"/>
<path fill-rule="evenodd" clip-rule="evenodd" d="M0.847656 0.833333C0.847656 0.373096 1.24371 0 1.73226 0H5.2707C5.69233 0 6.05535 0.280321 6.1381 0.669786L6.88107 4.16667H21.1936C21.4573 4.16667 21.7072 4.27744 21.8752 4.4688C22.0433 4.66015 22.112 4.91215 22.0626 5.15611L20.646 12.154C20.5246 12.7295 20.1923 13.2465 19.7071 13.6144C19.2243 13.9805 18.6209 14.1758 18.0014 14.1667H9.41831C8.79885 14.1758 8.19539 13.9805 7.71264 13.6144C7.22767 13.2466 6.8954 12.7299 6.77394 12.1547C6.77389 12.1545 6.77399 12.1549 6.77394 12.1547L5.29617 5.19933C5.29017 5.17632 5.28519 5.15294 5.28127 5.12923L4.5456 1.66667H1.73226C1.24371 1.66667 0.847656 1.29357 0.847656 0.833333H0.847656ZM7.23517 5.83333L8.50911 11.8293C8.54955 12.0212 8.66033 12.1935 8.82206 12.3161C8.98378 12.4387 9.18614 12.5039 9.39372 12.5002L9.41067 12.5H18.0091L18.026 12.5002C18.2336 12.5039 18.436 12.4387 18.5977 12.3161C18.7587 12.194 18.8692 12.0227 18.91 11.832L20.1244 5.83333H7.23517Z" fill="white"/>
</g>
<defs>
<clipPath id="clip0_7_3829">
<rect width="21.2306" height="20" fill="white" transform="translate(0.847656)"/>
</clipPath>
</defs>
</svg>
