<svg width="19" height="16" viewBox="0 0 19 16" fill="none" xmlns="http://www.w3.org/2000/svg">
<g clip-path="url(#clip0_1_1415)">
<path d="M18.4145 13.2849H18.0389V2.21875C18.0389 1.94263 17.7767 1.71875 17.4534 1.71875H13.8822C13.5589 1.71875 13.2967 1.94263 13.2967 2.21875V13.2849H12.0036V4.552C12.0036 4.27588 11.7414 4.052 11.4181 4.052H7.84691C7.52358 4.052 7.26143 4.27588 7.26143 4.552V13.2849H5.96826V6.88538C5.96826 6.60925 5.70611 6.38538 5.38278 6.38538H1.81159C1.48827 6.38538 1.22612 6.60925 1.22612 6.88538V13.2849H0.850187C0.526859 13.2849 0.264709 13.5088 0.264709 13.7849C0.264709 14.061 0.526859 14.2849 0.850187 14.2849H18.4145C18.7379 14.2849 19 14.061 19 13.7849C19 13.5088 18.7379 13.2849 18.4145 13.2849ZM14.4676 2.71875H16.8678V13.2849H14.4676V2.71875ZM8.43238 13.2849V5.052H10.8326V13.2849H8.43238ZM2.39707 7.38538H4.7973V13.2849H2.39707V7.38538Z" fill="#041E42"/>
</g>
<defs>
<clipPath id="clip0_1_1415">
<rect width="18.7353" height="16" fill="white" transform="translate(0.264709)"/>
</clipPath>
</defs>
</svg>
