<svg width="83" height="80" viewBox="0 0 83 80" fill="none" xmlns="http://www.w3.org/2000/svg">
<ellipse cx="41.8482" cy="40" rx="41.1099" ry="40" fill="#443297"/>
<path d="M54.406 35.7612C54.406 35.3426 54.2386 34.9241 53.9372 34.6228L51.6604 32.346C51.3591 32.0446 50.9406 31.8772 50.522 31.8772C50.1035 31.8772 49.685 32.0446 49.3837 32.346L38.4015 43.3449L33.4796 38.4062C33.1783 38.1049 32.7598 37.9375 32.3412 37.9375C31.9227 37.9375 31.5042 38.1049 31.2028 38.4062L28.9261 40.683C28.6247 40.9844 28.4573 41.4029 28.4573 41.8214C28.4573 42.24 28.6247 42.6585 28.9261 42.9598L34.9863 49.0201L37.2631 51.2969C37.5645 51.5982 37.983 51.7656 38.4015 51.7656C38.82 51.7656 39.2386 51.5982 39.5399 51.2969L41.8167 49.0201L53.9372 36.8996C54.2386 36.5982 54.406 36.1797 54.406 35.7612Z" fill="white"/>
</svg>
