<svg width="36" height="40" viewBox="0 0 36 40" fill="none" xmlns="http://www.w3.org/2000/svg">
<path d="M17.8766 0C8.33447 0 0.571289 7.88555 0.571289 17.5781C0.571289 18.6523 0.571289 26.9616 0.571289 27.1094C0.571289 29.0479 2.12393 30.625 4.03236 30.625H5.38449C5.86073 31.9889 7.1431 32.9688 8.64712 32.9688C10.5556 32.9688 12.1082 31.3916 12.1082 29.4531V19.9219C12.1082 17.9834 10.5556 16.4062 8.64712 16.4062C7.1431 16.4062 5.86073 17.3861 5.38449 18.75H4.03236C3.62788 18.75 3.23978 18.8215 2.87867 18.9516V17.5781C2.87867 9.17789 9.60676 2.34375 17.8766 2.34375C26.1465 2.34375 32.8746 9.17789 32.8746 17.5781V18.9516C32.5135 18.8215 32.1254 18.75 31.7209 18.75H30.3688C29.8926 17.3861 28.6102 16.4062 27.1062 16.4062C25.1977 16.4062 23.6451 17.9834 23.6451 19.9219V29.4531C23.6451 31.3916 25.1977 32.9688 27.1062 32.9688C27.4554 32.9688 27.7926 32.9155 28.1107 32.8173C27.6792 34.2596 26.358 35.3125 24.7988 35.3125H21.1393C20.663 33.9486 19.3807 32.9688 17.8766 32.9688C15.9682 32.9688 14.4156 34.5459 14.4156 36.4844C14.4156 38.4229 15.9682 40 17.8766 40C19.3807 40 20.663 39.0202 21.1393 37.6562H24.7988C27.9795 37.6562 30.5672 35.0277 30.5672 31.7969V30.625H31.7209C33.6294 30.625 35.182 29.0479 35.182 27.1094C35.182 26.9638 35.182 18.6514 35.182 17.5781C35.182 7.88555 27.4188 0 17.8766 0ZM7.49343 19.9219C7.49343 19.2757 8.01098 18.75 8.64712 18.75C9.28327 18.75 9.80081 19.2757 9.80081 19.9219V29.4531C9.80081 30.0993 9.28327 30.625 8.64712 30.625C8.01098 30.625 7.49343 30.0993 7.49343 29.4531V19.9219ZM4.03236 21.0938H5.18605V28.2812H4.03236C3.39622 28.2812 2.87867 27.7555 2.87867 27.1094V22.2656C2.87867 21.6195 3.39622 21.0938 4.03236 21.0938ZM17.8766 37.6562C17.2405 37.6562 16.723 37.1305 16.723 36.4844C16.723 35.8382 17.2405 35.3125 17.8766 35.3125C18.5128 35.3125 19.0303 35.8382 19.0303 36.4844C19.0303 37.1305 18.5128 37.6562 17.8766 37.6562ZM28.2599 29.4531C28.2599 30.0993 27.7423 30.625 27.1062 30.625C26.47 30.625 25.9525 30.0993 25.9525 29.4531V19.9219C25.9525 19.2757 26.47 18.75 27.1062 18.75C27.7423 18.75 28.2599 19.2757 28.2599 19.9219V29.4531ZM32.8746 27.1094C32.8746 27.7555 32.3571 28.2812 31.7209 28.2812H30.5672V21.0938H31.7209C32.3571 21.0938 32.8746 21.6195 32.8746 22.2656V27.1094Z" fill="#041E42"/>
</svg>
