<svg width="24" height="24" viewBox="0 0 24 24" fill="none" xmlns="http://www.w3.org/2000/svg">
<g clip-path="url(#clip0_1_1444)">
<path d="M5.15601 5.90625C4.89726 5.90625 4.68726 6.11625 4.68726 6.375C4.68726 6.63375 4.89726 6.84375 5.15601 6.84375C5.41476 6.84375 5.62476 6.63375 5.62476 6.375C5.62476 6.11625 5.41476 5.90625 5.15601 5.90625Z" fill="#041E42"/>
<path d="M22.0746 9.91509L21.3964 8.55858C21.1566 8.07895 20.6746 7.78106 20.1386 7.78106H16.2181V4.49995C16.2181 3.72459 15.5873 3.09375 14.8119 3.09375H1.4062C0.630797 3.09375 0 3.72455 0 4.49995V16.6869C0 17.4623 0.630797 18.0931 1.4062 18.0931H2.81241C2.81241 18.8129 3.08452 19.4701 3.53081 19.968H0.46875C0.209859 19.968 0 20.178 0 20.4368C0 20.6956 0.209859 20.9055 0.46875 20.9055H23.5303C23.7892 20.9055 23.9991 20.6956 23.9991 20.4368C23.9991 20.178 23.7892 19.968 23.5303 19.968H22.3432C22.7895 19.47 23.0616 18.8129 23.0616 18.0931C23.0616 18.0664 23.0603 18.0398 23.0595 18.0132C23.6062 17.8202 23.999 17.2987 23.999 16.6869V14.0958C23.999 13.5488 24.1073 14.0595 22.0746 9.91509ZM21.3657 10.5934L22.7719 13.4058H18.093V10.5934H21.3657ZM0.937453 14.3433H1.87491V15.2807H0.937453V14.3433ZM5.62477 19.968C4.59094 19.968 3.74986 19.1269 3.74986 18.0931C3.74986 17.9655 3.76252 17.8398 3.78783 17.7176C3.96412 16.8488 4.73667 16.2182 5.62477 16.2182C6.51286 16.2182 7.28545 16.8488 7.4617 17.7176C7.46184 17.7183 7.46198 17.7189 7.46212 17.7195C7.48706 17.8397 7.49967 17.9655 7.49967 18.0931C7.49967 19.127 6.65859 19.968 5.62477 19.968ZM5.62477 15.2807C4.42378 15.2807 3.36389 16.0501 2.97314 17.1556H1.4062C1.14773 17.1556 0.937453 16.9454 0.937453 16.6869V16.2181H2.34366C2.60255 16.2181 2.81241 16.0082 2.81241 15.7494V13.8745C2.81241 13.6156 2.60255 13.4057 2.34366 13.4057H0.937453V4.49995C0.937453 4.24148 1.14773 4.0312 1.4062 4.0312H14.8119C15.0704 4.0312 15.2806 4.24148 15.2806 4.49995C15.2806 4.84866 15.2806 16.0316 15.2806 17.1557H8.27616C7.8847 16.0495 6.82523 15.2807 5.62477 15.2807ZM7.71872 19.968C8.16506 19.47 8.43713 18.8129 8.43713 18.0931C8.79703 18.0931 17.2835 18.0931 17.4368 18.0931C17.4368 18.8129 17.7089 19.4701 18.1552 19.968H7.71872ZM20.2492 19.968C19.2153 19.968 18.3743 19.1269 18.3743 18.0931C18.3743 17.9655 18.3869 17.8398 18.4122 17.7176C18.5885 16.8488 19.3611 16.2182 20.2492 16.2182C21.1372 16.2182 21.9098 16.8488 22.0861 17.7176C22.0862 17.7183 22.0864 17.7189 22.0865 17.7195C22.1115 17.8397 22.1241 17.9655 22.1241 18.0931C22.1241 19.127 21.283 19.968 20.2492 19.968ZM23.0616 16.6869C23.0616 16.8428 22.9847 16.9808 22.8673 17.0661C22.4515 16.0082 21.417 15.2808 20.2492 15.2808C19.0482 15.2808 17.9883 16.0501 17.5975 17.1557H16.218V8.71852H20.1385C20.3172 8.71852 20.4779 8.81789 20.5578 8.97778L20.8969 9.65597H17.6243C17.3654 9.65597 17.1555 9.86587 17.1555 10.1247V13.8746C17.1555 14.1334 17.3654 14.3433 17.6243 14.3433H23.0616V16.6869Z" fill="#041E42"/>
<path d="M12.937 5.90625H7.03097C6.77208 5.90625 6.56222 6.11616 6.56222 6.375C6.56222 6.63384 6.77208 6.84375 7.03097 6.84375H12.937C13.1959 6.84375 13.4057 6.63384 13.4057 6.375C13.4057 6.11616 13.1958 5.90625 12.937 5.90625Z" fill="#041E42"/>
<path d="M12.937 7.78125H8.90588C8.64699 7.78125 8.43713 7.99116 8.43713 8.25C8.43713 8.50884 8.64699 8.71875 8.90588 8.71875H12.937C13.1959 8.71875 13.4057 8.50884 13.4057 8.25C13.4057 7.99116 13.1958 7.78125 12.937 7.78125Z" fill="#041E42"/>
<path d="M20.2492 17.1562C19.7322 17.1562 19.3117 17.5768 19.3117 18.0937C19.3117 18.6106 19.7323 19.0312 20.2492 19.0312C20.7661 19.0312 21.1866 18.6106 21.1866 18.0937C21.1866 17.5768 20.7661 17.1562 20.2492 17.1562Z" fill="#041E42"/>
<path d="M5.62476 17.1562C5.10782 17.1562 4.68731 17.5768 4.68731 18.0937C4.68731 18.6106 5.10787 19.0312 5.62476 19.0312C6.1417 19.0312 6.56222 18.6106 6.56222 18.0937C6.56222 17.5768 6.1417 17.1562 5.62476 17.1562Z" fill="#041E42"/>
</g>
<defs>
<clipPath id="clip0_1_1444">
<rect width="24" height="24" fill="white"/>
</clipPath>
</defs>
</svg>
