<svg width="21" height="20" viewBox="0 0 21 20" fill="none" xmlns="http://www.w3.org/2000/svg">
<g clip-path="url(#clip0_1_2201)">
<path d="M5.45991 9.02342C5.45991 9.0287 5.45978 9.01811 5.45991 9.02342V9.02342ZM15.5028 9.02342C15.4621 10.9381 14.3151 12.7462 12.1858 14.2647C11.1822 14.9805 9.78046 14.9805 8.77687 14.2647C6.64762 12.7462 5.50053 10.9381 5.45991 9.02342C5.46779 6.50507 8.67685 5.25949 10.4813 7.07433C12.2868 5.2587 15.4953 6.50647 15.5028 9.02342ZM13.8698 8.99354C13.7832 7.36061 11.3616 7.37972 11.2978 9.02342C11.2978 9.45491 10.9323 9.80467 10.4813 9.80467C10.0304 9.80467 9.66484 9.45491 9.66484 9.02342C9.60095 7.37897 7.17871 7.36155 7.09289 8.99354C7.13515 10.7767 8.56209 12.1627 9.75278 13.0119C10.1817 13.3179 10.7809 13.3179 11.2099 13.0119C12.4006 12.1627 13.8275 10.7767 13.8698 8.99354ZM15.5028 9.02342C15.5028 9.0287 15.5029 9.01811 15.5028 9.02342V9.02342ZM20.8916 9.99998C20.8823 18.8764 9.61602 23.3413 3.05044 17.0709C-1.00349 13.3487 -1.00414 6.65108 3.0506 2.9289C9.61679 -3.34136 20.8828 1.12406 20.8916 9.99998V9.99998ZM19.2586 9.99998C19.2586 5.34753 15.3028 1.5625 10.4405 1.5625C-1.25791 2.02598 -1.25452 17.9757 10.4406 18.4375C15.3028 18.4375 19.2586 14.6524 19.2586 9.99998Z" fill="#041E42"/>
</g>
<defs>
<clipPath id="clip0_1_2201">
<rect width="20.9023" height="20" fill="white"/>
</clipPath>
</defs>
</svg>
